<svg width="1024" height="1024" viewBox="0 0 1024 1024" xmlns="http://www.w3.org/2000/svg">
  <rect width="1024" height="1024" fill="#050505"/>

  <!-- Rounded tile from reference -->
  <rect x="154" y="120" width="716" height="752" rx="120" fill="#F2F2F2"/>

  <!-- Parrot silhouette (reference-style, monochrome) -->
  <g transform="translate(80 140) scale(0.75)">
    <!-- Parrot silhouette (reference-style, monochrome) -->
    <path d="M255 677
             C279 626 314 587 355 547
             C409 494 445 431 483 374
             C514 329 551 286 598 247
             C594 233 592 219 592 206
             C592 110 673 34 775 44
             C871 54 939 136 929 234
             C924 277 904 315 875 344
             C891 379 900 421 901 468
             C903 578 847 673 747 735
             C713 756 686 768 664 776
             C685 782 700 798 704 821
             C707 837 701 851 688 861
             C707 875 710 892 701 907
             C692 923 675 930 657 929
             C638 927 627 916 621 902
             C599 916 571 924 540 924
             C512 924 491 919 474 911
             C467 933 450 948 429 949
             C413 950 400 942 392 929
             C383 915 381 898 388 882
             C372 877 360 868 355 853
             C349 835 355 817 372 805
             C336 783 308 752 287 712
             C277 694 270 682 255 677Z"
          fill="#050505"/>

    <!-- Face white patch -->
    <path d="M587 207
             C587 137 645 82 717 82
             C789 82 847 138 847 208
             C847 275 792 331 723 334
             C649 337 587 280 587 207Z"
          fill="#F2F2F2"/>

    <!-- Face inner separation shadow -->
    <path d="M707 83
             C771 91 824 138 841 199
             C805 176 767 165 726 164
             C688 163 651 172 614 194
             C623 136 658 93 707 83Z"
          fill="#D9D9D9" opacity="0.95"/>

    <!-- Beak silhouette -->
    <path d="M806 174
             C849 163 892 170 922 195
             C950 218 963 255 956 290
             C948 333 919 371 879 394
             C857 407 833 413 810 412
             C831 379 837 345 833 315
             C829 285 818 259 800 235
             C793 226 792 217 794 206
             C796 193 800 183 806 174Z"
          fill="#050505"/>

    <!-- Lower beak cut -->
    <path d="M781 298
             C815 307 843 328 860 360
             C842 386 814 401 777 406
             C789 379 792 352 786 325
             C784 315 782 306 781 298Z"
          fill="#F2F2F2"/>

    <!-- Beak smile cut line -->
    <path d="M790 248 C805 287 830 314 874 326" stroke="#F2F2F2" stroke-width="10" stroke-linecap="round"/>

    <!-- Eye + highlight -->
    <circle cx="679" cy="188" r="20" fill="#050505"/>
    <circle cx="672" cy="181" r="7" fill="#FFFFFF"/>

    <!-- Wing white patch -->
    <path d="M493 381
             C560 323 644 315 708 352
             C754 379 780 428 775 484
             C771 529 750 567 718 599
             C664 653 602 696 531 727
             C501 740 474 748 445 753
             C484 727 515 691 546 647
             C578 603 605 555 626 503
             C643 460 643 427 632 406
             C611 365 548 353 493 381Z"
          fill="#F2F2F2"/>

    <!-- Wing feather split 1 -->
    <path d="M474 514 C528 487 575 445 607 389 C569 454 531 519 484 572 C452 608 413 633 367 641 C408 611 444 567 474 514Z"
          fill="#F2F2F2"/>

    <!-- Wing feather split 2 -->
    <path d="M528 558 C571 522 606 478 632 430 C613 486 586 541 550 595 C510 654 457 708 393 748 C446 695 492 633 528 558Z"
          fill="#F2F2F2"/>

    <!-- Chest/neck white patch -->
    <path d="M665 334
             C692 369 705 417 704 474
             C703 566 666 637 604 690
             C583 707 561 720 538 730
             C559 706 574 679 583 646
             C592 614 593 581 590 545
             C587 510 585 476 589 441
             C594 393 616 356 665 334Z"
          fill="#F2F2F2"/>

    <!-- Tail white split -->
    <path d="M438 759 C427 819 407 878 376 936 C417 891 454 835 487 770 C473 773 458 772 438 759Z" fill="#F2F2F2"/>

    <!-- Perch-less feet/claws (like reference) -->
    <g fill="none" stroke="#050505" stroke-linecap="round" stroke-linejoin="round">
      <path d="M575 776 C565 812 565 841 575 868" stroke-width="14"/>
      <path d="M612 781 C598 816 598 844 607 869" stroke-width="14"/>
      <path d="M552 868 C580 862 600 866 619 884" stroke-width="14"/>
      <path d="M548 872 C545 890 530 900 517 900" stroke-width="11"/>
      <path d="M586 877 C585 898 569 909 553 910" stroke-width="11"/>
      <path d="M625 884 C627 904 615 918 600 921" stroke-width="11"/>
      <path d="M601 868 C630 861 652 866 669 886" stroke-width="14"/>
      <path d="M668 886 C671 905 662 918 648 924" stroke-width="11"/>
    </g>
  </g>
</svg>
